<svg width="186" height="170" viewBox="0 0 186 170" fill="none" xmlns="http://www.w3.org/2000/svg">
<path d="M131.193 121.567V101.584H33.6343V77.8531H158.532V121.567H131.193ZM103.993 2.77551H123.838V69.5265H77.626V2.77551H97.3321V15.1265H103.993V2.77551ZM46.2629 17.7633H52.924V6.93878H72.6301V69.5265H26.418V6.93878H46.2629V17.7633ZM158.532 1.38776V72.9959H131.193V1.38776H158.532ZM97.3321 49.1265H103.993V35.3878H97.3321V49.1265ZM52.924 49.1265V38.0245H46.2629V49.1265H52.924Z" fill="white"/>
<path d="M13.184 136.642H15.52V138.882C15.52 140.141 15.296 141.336 14.848 142.466C14.4213 143.597 13.824 144.653 13.056 145.634C12.3093 146.594 11.4347 147.458 10.432 148.226C9.45067 148.994 8.39467 149.645 7.264 150.178C6.15467 150.712 5.024 151.117 3.872 151.394L2.688 149.186C3.69067 148.973 4.69333 148.642 5.696 148.194C6.72 147.746 7.68 147.202 8.576 146.562C9.472 145.901 10.2613 145.165 10.944 144.354C11.648 143.544 12.192 142.68 12.576 141.762C12.9813 140.824 13.184 139.864 13.184 138.882V136.642ZM13.696 136.642H15.968V138.882C15.968 139.864 16.1707 140.824 16.576 141.762C16.9813 142.68 17.5253 143.544 18.208 144.354C18.912 145.165 19.712 145.901 20.608 146.562C21.504 147.202 22.4533 147.757 23.456 148.226C24.48 148.674 25.504 148.994 26.528 149.186L25.312 151.394C24.16 151.117 23.0293 150.712 21.92 150.178C20.8107 149.645 19.7547 148.994 18.752 148.226C17.7707 147.458 16.896 146.594 16.128 145.634C15.36 144.653 14.7627 143.597 14.336 142.466C13.9093 141.336 13.696 140.141 13.696 138.882V136.642ZM1.6 157.506H27.84V159.714H1.6V157.506ZM32.1895 137.57H45.4695V156.258H32.1895V137.57ZM42.8455 139.682H34.7815V154.114H42.8455V139.682ZM50.6215 134.658H53.2775V163.618H50.6215V134.658ZM52.6695 146.21H58.0135V148.45H52.6695V146.21ZM63.835 150.274H83.707V152.418H63.835V150.274ZM60.475 157.666H86.715V159.874H60.475V157.666ZM63.835 137.154H83.419V139.33H66.523V150.914H63.835V137.154ZM65.691 143.586H82.779V145.73H65.691V143.586ZM109.721 134.69H112.377V156.386H109.721V134.69ZM111.545 144.194H116.633V146.402H111.545V144.194ZM89.9765 138.21H107.065V140.354H89.9765V138.21ZM98.5205 141.922C99.8858 141.922 101.091 142.157 102.137 142.626C103.182 143.074 103.993 143.704 104.569 144.514C105.145 145.304 105.433 146.242 105.433 147.33C105.433 148.418 105.145 149.368 104.569 150.178C103.993 150.968 103.182 151.586 102.137 152.034C101.091 152.482 99.8858 152.706 98.5205 152.706C97.1552 152.706 95.9498 152.482 94.9045 152.034C93.8592 151.586 93.0378 150.968 92.4405 150.178C91.8645 149.368 91.5765 148.418 91.5765 147.33C91.5765 146.242 91.8645 145.304 92.4405 144.514C93.0378 143.704 93.8592 143.074 94.9045 142.626C95.9498 142.157 97.1552 141.922 98.5205 141.922ZM98.5205 144.002C97.2192 144.002 96.1632 144.312 95.3525 144.93C94.5418 145.528 94.1365 146.328 94.1365 147.33C94.1365 148.333 94.5418 149.133 95.3525 149.73C96.1632 150.328 97.2192 150.626 98.5205 150.626C99.8432 150.626 100.899 150.328 101.689 149.73C102.499 149.133 102.905 148.333 102.905 147.33C102.905 146.328 102.499 145.528 101.689 144.93C100.899 144.312 99.8432 144.002 98.5205 144.002ZM97.2085 134.69H99.8645V139.298H97.2085V134.69ZM94.3605 160.802H113.657V162.978H94.3605V160.802ZM94.3605 154.658H96.9845V161.698H94.3605V154.658ZM129.918 136.898H142.718V139.106H129.918V136.898ZM134.27 143.362H136.894V150.594H134.27V143.362ZM141.662 136.898H144.254V138.434C144.254 139.394 144.222 140.589 144.158 142.018C144.115 143.448 143.902 145.112 143.518 147.01L140.894 146.754C141.278 144.834 141.502 143.202 141.566 141.858C141.63 140.514 141.662 139.373 141.662 138.434V136.898ZM148.19 134.658H150.878V156.45H148.19V134.658ZM149.662 144.066H155.006V146.306H149.662V144.066ZM132.574 160.802H151.806V162.978H132.574V160.802ZM132.574 154.466H135.23V161.442H132.574V154.466ZM128.446 151.842L128.158 149.666C129.865 149.666 131.753 149.645 133.822 149.602C135.891 149.56 137.993 149.474 140.126 149.346C142.259 149.197 144.307 148.994 146.27 148.738L146.43 150.69C144.446 151.032 142.387 151.288 140.254 151.458C138.121 151.629 136.041 151.736 134.014 151.778C132.009 151.821 130.153 151.842 128.446 151.842ZM178.876 134.658H181.5V163.65H178.876V134.658ZM159.452 154.434H161.852C163.494 154.434 165.073 154.413 166.588 154.37C168.124 154.306 169.67 154.2 171.228 154.05C172.806 153.901 174.449 153.688 176.156 153.41L176.412 155.586C173.809 156.013 171.356 156.301 169.052 156.45C166.748 156.578 164.348 156.642 161.852 156.642H159.452V154.434ZM159.388 137.346H172.764V147.682H162.14V155.266H159.452V145.538H170.076V139.522H159.388V137.346Z" fill="white"/>
</svg>
