<svg width="186" height="170" viewBox="0 0 186 170" fill="none" xmlns="http://www.w3.org/2000/svg">
<path d="M131.193 121.567V101.584H33.6338V77.8531H158.532V121.567H131.193ZM103.993 2.77551H123.838V69.5265H77.6255V2.77551H97.3316V15.1265H103.993V2.77551ZM46.2624 17.7633H52.9235V6.93878H72.6296V69.5265H26.4175V6.93878H46.2624V17.7633ZM158.532 1.38775V72.9959H131.193V1.38775H158.532ZM97.3316 49.1265H103.993V35.3878H97.3316V49.1265ZM52.9235 49.1265V38.0245H46.2624V49.1265H52.9235Z" fill="white"/>
<path d="M13.184 136.674H15.488V138.882C15.488 145.186 9.632 150.082 3.84 151.394L2.656 149.186C7.744 148.226 13.184 143.81 13.184 138.882V136.674ZM13.664 136.674H15.968V138.882C15.968 143.842 21.44 148.226 26.496 149.186L25.312 151.394C19.552 150.082 13.664 145.218 13.664 138.882V136.674ZM1.6 157.538H27.808V159.714H1.6V157.538ZM32.1575 137.57H45.4375V156.29H32.1575V137.57ZM42.8455 139.714H34.7495V154.146H42.8455V139.714ZM50.5895 134.69H53.2775V163.618H50.5895V134.69ZM52.6375 146.242H58.0135V148.482H52.6375V146.242ZM63.835 150.274H83.707V152.418H63.835V150.274ZM60.475 157.698H86.683V159.906H60.475V157.698ZM63.835 137.154H83.387V139.33H66.523V150.946H63.835V137.154ZM65.659 143.618H82.779V145.73H65.659V143.618ZM109.689 134.722H112.345V156.418H109.689V134.722ZM111.513 144.194H116.633V146.434H111.513V144.194ZM89.9765 138.21H107.065V140.354H89.9765V138.21ZM98.5205 141.954C102.617 141.954 105.433 144.098 105.433 147.362C105.433 150.594 102.617 152.738 98.5205 152.738C94.3925 152.738 91.5765 150.594 91.5765 147.362C91.5765 144.098 94.3925 141.954 98.5205 141.954ZM98.5205 144.034C95.8965 144.034 94.1045 145.346 94.1045 147.362C94.1045 149.346 95.8965 150.658 98.5205 150.658C101.113 150.658 102.905 149.346 102.905 147.362C102.905 145.346 101.113 144.034 98.5205 144.034ZM97.1765 134.69H99.8325V139.33H97.1765V134.69ZM94.3285 160.802H113.657V162.978H94.3285V160.802ZM94.3285 154.69H96.9845V161.73H94.3285V154.69ZM129.886 136.93H142.686V139.106H129.886V136.93ZM134.238 143.394H136.862V150.626H134.238V143.394ZM141.63 136.93H144.254V138.466C144.254 140.354 144.254 143.234 143.486 147.042L140.894 146.754C141.63 142.946 141.63 140.322 141.63 138.466V136.93ZM148.19 134.69H150.846V156.482H148.19V134.69ZM149.63 144.098H154.974V146.306H149.63V144.098ZM132.574 160.802H151.774V162.978H132.574V160.802ZM132.574 154.466H135.198V161.474H132.574V154.466ZM128.414 151.874L128.126 149.698C133.278 149.698 140.382 149.57 146.238 148.77L146.43 150.69C140.414 151.746 133.502 151.874 128.414 151.874ZM178.844 134.658H181.5V163.65H178.844V134.658ZM159.452 154.466H161.852C166.684 154.466 171.004 154.274 176.124 153.442L176.412 155.618C171.164 156.482 166.812 156.674 161.852 156.674H159.452V154.466ZM159.388 137.378H172.764V147.714H162.108V155.298H159.452V145.538H170.076V139.554H159.388V137.378Z" fill="white"/>
</svg>
